<?xml version="1.0" encoding="UTF-8" standalone="no"?>
<!-- Created with Inkscape (http://www.inkscape.org/) -->

<svg
   xmlns:dc="http://purl.org/dc/elements/1.1/"
   xmlns:cc="http://creativecommons.org/ns#"
   xmlns:rdf="http://www.w3.org/1999/02/22-rdf-syntax-ns#"
   xmlns:svg="http://www.w3.org/2000/svg"
   xmlns="http://www.w3.org/2000/svg"
   xmlns:sodipodi="http://sodipodi.sourceforge.net/DTD/sodipodi-0.dtd"
   xmlns:inkscape="http://www.inkscape.org/namespaces/inkscape"
   width="32.44545mm"
   height="28.012472mm"
   viewBox="0 0 114.96419 99.25679"
   id="svg2"
   version="1.1"
   inkscape:version="0.91 r13725"
   sodipodi:docname="Diamond.svg">
  <defs
     id="defs4" />
  <sodipodi:namedview
     id="base"
     pagecolor="#ffffff"
     bordercolor="#666666"
     borderopacity="1.0"
     inkscape:pageopacity="0.0"
     inkscape:pageshadow="2"
     inkscape:zoom="7.9195959"
     inkscape:cx="56.991652"
     inkscape:cy="65.491362"
     inkscape:document-units="px"
     inkscape:current-layer="layer1"
     showgrid="false"
     fit-margin-top="10"
     fit-margin-left="10"
     fit-margin-right="10"
     fit-margin-bottom="10"
     inkscape:window-width="1920"
     inkscape:window-height="1137"
     inkscape:window-x="1016"
     inkscape:window-y="-8"
     inkscape:window-maximized="1" />
  <metadata
     id="metadata7">
    <rdf:RDF>
      <cc:Work
         rdf:about="">
        <dc:format>image/svg+xml</dc:format>
        <dc:type
           rdf:resource="http://purl.org/dc/dcmitype/StillImage" />
        <dc:title></dc:title>
      </cc:Work>
    </rdf:RDF>
  </metadata>
  <g
     inkscape:label="Layer 1"
     inkscape:groupmode="layer"
     id="layer1"
     transform="translate(-434.66076,-197.7338)">
    <g
       id="g5550">
      <path
         inkscape:connector-curvature="0"
         id="path4905-6"
         d="m 492.33855,260.99335 c 0.0158,-0.052 2.49812,-4.7127 5.51626,-10.3579 l 5.48752,-10.2639 5.36835,0 5.36835,0 -0.51249,0.4946 c -0.28187,0.272 -4.82947,4.5984 -10.10577,9.6141 -5.27632,5.0158 -9.94377,9.4555 -10.37213,9.8662 -0.42836,0.4106 -0.7659,0.7043 -0.75009,0.6526 z"
         style="fill:#ffd5d5;stroke:#ffffff;stroke-width:0.09115205;stroke-miterlimit:4;stroke-dasharray:none;stroke-opacity:1" />
      <path
         inkscape:connector-curvature="0"
         id="path4907-0"
         d="m 501.24518,236.70365 c -1.14817,-1.8432 -2.09942,-3.3827 -2.1139,-3.4212 -0.0154,-0.041 1.75489,-0.07 4.26382,-0.07 l 4.29013,0 2.84233,3.0412 c 1.56328,1.6726 2.99608,3.2121 3.18401,3.4212 l 0.34169,0.38 -5.36025,0 -5.36025,0 -2.08758,-3.3512 z"
         style="fill:#ffd5d5;stroke:#ffffff;stroke-width:0.09115205;stroke-miterlimit:4;stroke-dasharray:none;stroke-opacity:1" />
      <path
         inkscape:connector-curvature="0"
         id="path4909-4"
         d="m 470.39089,239.99045 c 0.0145,-0.035 1.41202,-1.5743 3.10565,-3.4197 l 3.07933,-3.3554 4.32102,-0.001 4.32102,-0.001 -0.47602,0.7581 c -0.26181,0.417 -1.22562,1.9565 -2.1418,3.4212 l -1.66578,2.6631 -5.28487,0 c -2.90668,0 -5.27302,-0.029 -5.25855,-0.064 z"
         style="fill:#ffd5d5;stroke:#ffffff;stroke-width:0.09115205;stroke-miterlimit:4;stroke-dasharray:none;stroke-opacity:1" />
      <path
         inkscape:connector-curvature="0"
         id="path4911-9"
         d="m 484.61839,254.67795 c -3.56707,-3.531 -8.26952,-8.1957 -10.44988,-10.366 l -3.96429,-3.9461 5.35714,0 5.35715,0 5.11252,10.3513 c 2.81189,5.6933 5.10362,10.3567 5.09273,10.3632 -0.0109,0.01 -2.9383,-2.8772 -6.50537,-6.4082 z"
         style="fill:#ffd5d5;stroke:#ffffff;stroke-width:0.09115205;stroke-miterlimit:4;stroke-dasharray:none;stroke-opacity:1" />
      <path
         inkscape:connector-curvature="0"
         id="path4913-0"
         d="m 486.44209,250.95815 -5.21458,-10.5534 5.47736,-0.02 c 3.01255,-0.011 7.91738,-0.011 10.89963,0 l 5.42226,0.02 -5.64556,10.5538 c -3.10506,5.8045 -5.66333,10.5536 -5.68505,10.5534 -0.0217,-2e-4 -2.38604,-4.7494 -5.25406,-10.5538 z"
         style="fill:#ffaaaa;stroke:#ffffff;stroke-width:0.091;stroke-miterlimit:4;stroke-dasharray:none;stroke-opacity:1" />
      <path
         inkscape:connector-curvature="0"
         id="path4915-6"
         d="m 481.34523,239.91875 c 0.0423,-0.075 0.99769,-1.6056 2.123,-3.4017 l 2.04602,-3.2657 6.62428,-0.017 6.62429,-0.017 1.93445,3.1146 c 1.06394,1.713 2.018,3.2516 2.12012,3.4191 l 0.18567,0.3046 -10.8674,0 c -10.32659,0 -10.86357,-0.01 -10.79043,-0.136 z"
         style="fill:#ffaaaa;stroke:#ffffff;stroke-width:0.09115205;stroke-miterlimit:4;stroke-dasharray:none;stroke-opacity:1" />
    </g>
  </g>
</svg>
